# xmcd CD database file
#
# Track frame offsets:
#	150
#	19057
#	43553
#	63230
#	85555
#	102861
#	120441
#	136640
#	152721
#	181359
#	203130
#	231143
#	260395
#
# Disc length: 3729 seconds
#
# Revision: 0
# Processed by: cddbd v1.4PL0 Copyright (c) Steve Scherf et al.
# Submitted via: CDex 1.50beta10
#
DISCID=990e8f0d
DTITLE=Bob Dylan - Looking For Maurice Chevalier's Passport In America Disc Four
DYEAR=2002
DGENRE=Blues
TTITLE0=Brown Sugar
TTITLE1=Carrying A Torch
TTITLE2=Old Man
TTITLE3=The End Of The Innocence
TTITLE4=Boom, Boom Mancini
TTITLE5=Mutineer
TTITLE6=Accidentally Like A Martyr
TTITLE7=Lawyers, Guns And Money
TTITLE8=Something
TTITLE9=Solid Rock
TTITLE10=Just Like Tom Thumb's Blues
TTITLE11=Things Have Changed
TTITLE12=Watching The River Flow
EXTD=YEAR: 2002
EXTT0=
EXTT1=
EXTT2=
EXTT3=
EXTT4=
EXTT5=
EXTT6=
EXTT7=
EXTT8=
EXTT9=
EXTT10=
EXTT11=
EXTT12=
PLAYORDER=
